PathFileType	4	(X/Y/Z)	C:/Users/beibeiliu/ov580/test_trc/User2\sequence.3_training_dense_right.trc
DataRate	CameraRate	NumFrames	NumMarkers	Units	OrigDataRate	OrigDataStartFrame	OrigNumFrames
120	120	8	19	mm	120	301	343
Frame#	Time	ThumbCMC			ThumbMCP			ThumbIP			ThumbTip			IndexMCP			IndexPIP			IndexTip			MiddleMCP			MiddlePIP			MiddleTip			RingMCP			RingPIP			RingTip			PinkyMCP			PinkyPIP			PinkyTip			BackHand1			BackHand2			BackHand3	
		X0	Y0	Z0	X1	Y1	Z1	X2	Y2	Z2	X3	Y3	Z3	X4	Y4	Z4	X5	Y5	Z5	X6	Y6	Z6	X7	Y7	Z7	X8	Y8	Z8	X9	Y9	Z9	X10	Y10	Z10	X11	Y11	Z11	X12	Y12	Z12	X13	Y13	Z13	X14	Y14	Z14	X15	Y15	Z15	X16	Y16	Z16	X17	Y17	Z17	X18	Y18	Z18	
300	2.5	67.1921	19.7797	33.662	31.9997	3.17359	15.8071	15.5028	-22.7782	-7.42363	23.1617	-46.7639	-17.8001	46.5928	-8.56241	-37.706	25.4038	-22.0867	-18.9105	46.2862	-3.9127	7.35896	55.072	-30.0993	-37.0722	31.2907	-38.6473	-14.3874	57.6147	-20.0285	13.4368	61.2331	-49.2852	-21.6492	42.4054	-50.0773	4.20651	63.3619	-25.5228	19.5998	68.808	-61.8315	-5.69284	56.688	-50.0037	24.8136	78.2146	-29.8551	30.3627	113.606	-18.3959	-3.50502	128.67	-7.65609	27.3857	103.355	18.9607	11.1627	
301	2.50833	76.6107	23.469	27.2748	48.6475	1.34325	6.78184	30.4021	-22.2818	-14.8225	42.8968	-48.1489	-29.4426	62.5596	-6.70377	-45.6886	41.5648	-21.2352	-26.614	63.3952	-4.62777	-0.975183	71.1571	-31.9576	-44.9573	48.4157	-39.0292	-19.8708	73.5411	-17.0772	5.2148	74.6976	-47.7711	-28.4221	57.4344	-48.5151	-5.43621	79.6023	-21.9255	11.8721	84.1068	-57.2272	-15.1467	70.8634	-52.1684	12.1657	96.0502	-27.8403	24.6403	129.534	-17.896	-6.13485	144.644	-5.94768	25.5563	118.037	15.8542	3.18296	
302	2.51667	89.2639	22.8124	19.015	61.1098	4.4196	-0.588726	45.3561	-19.2812	-24.0142	54.1506	-42.749	-35.2504	76.4888	-0.987457	-52.8107	56.3553	-19.9191	-35.0721	75.148	-0.543354	-9.358	86.9195	-24.0331	-51.5252	62.8324	-36.6825	-28.1251	84.2215	-13.4511	-2.17771	89.0235	-46.7608	-37.2799	72.0013	-46.6554	-11.6504	92.8876	-22.0222	5.83209	98.3394	-54.7605	-23.8548	82.6452	-48.5533	5.27875	104.389	-26.6814	15.9706	140.182	-11.0397	-14.947	153.838	-0.477201	21.0388	128.82	21.7245	-2.33384	
303	2.525	94.2497	31.6227	12.5454	67.4391	10.9155	-10.1277	51.1508	-13.1096	-33.9324	58.9358	-36.7642	-46.451	86.7553	4.73863	-60.3343	61.1359	-11.0388	-44.4716	77.2142	3.07575	-16.7667	93.9133	-20.1017	-60.4396	67.7438	-26.4804	-36.1533	88.0831	-6.55399	-10.5916	101.048	-35.6404	-45.7315	79.6486	-40.7544	-19.7156	99.1372	-13.5299	-1.61575	105.962	-50.7423	-30.9724	90.1434	-42.5543	-4.92217	109.147	-14.9317	7.28991	146.298	-3.73646	-22.5656	159.347	6.21368	11.8668	133.868	31.5747	-6.98428	
304	2.53333	98.1436	39.3989	6.6295	70.7084	21.2908	-15.0818	58.0926	-2.33336	-38.5151	64.6256	-25.2008	-51.2676	84.8582	16.2975	-68.4827	64.5978	-0.980493	-54.4268	83.3222	12.5705	-23.2884	95.7758	-5.69961	-67.9531	72.7185	-18.5072	-45.08	91.4549	6.86125	-16.1738	99.3158	-24.7988	-53.1677	81.1269	-27.4837	-26.4918	99.7489	-5.57028	-8.60605	110.323	-40.1708	-38.8047	92.5566	-33.3489	-13.8939	111.427	-12.1987	2.85901	150.511	6.23415	-28.5799	163.129	15.4292	3.63977	138.087	43.8924	-12.2952	
305	2.54167	95.2958	49.4109	3.80796	66.8767	32.0919	-15.6321	56.046	7.59705	-44.4117	65.1041	-14.8395	-57.9923	85.1607	29.0652	-71.5461	61.3095	11.1384	-60.0148	77.0272	22.3991	-27.8703	95.4861	7.78846	-72.2194	69.1841	-5.18904	-49.5005	87.2526	14.5219	-22.2194	96.7079	-14.6082	-58.852	78.1641	-18.0292	-37.2585	96.3153	5.96264	-14.3838	111.815	-28.4335	-44.7932	90.1944	-22.1977	-16.2885	106.003	0.266491	-6.04604	149.37	16.5592	-30.416	162.585	22.9745	-0.769031	134.089	52.7463	-15.1986	
306	2.55	87.3118	60.2779	0.0118668	57.8731	41.914	-20.1815	43.57	18.9265	-47.0884	52.972	-3.82868	-59.8908	72.8842	40.8627	-76.0812	55.0222	20.989	-61.7308	71.4512	31.355	-30.4299	86.0998	16.9534	-75.8284	60.023	6.30772	-52.0082	80.9623	23.1837	-24.9464	90.7413	-2.46608	-62.5435	70.3845	-6.59907	-39.8545	91.3686	13.9493	-15.9245	99.28	-15.1879	-50.555	81.3726	-14.204	-24.6192	100.579	11.0212	-5.4758	140.993	27.508	-33.3739	154.577	30.9315	-0.580033	128.657	57.9905	-20.6816	
307	2.55833	78.1288	67.8556	-0.14275	50.1989	50.5373	-20.3381	34.3844	30.1753	-44.2894	41.9234	4.33521	-64.9848	64.2872	45.9508	-75.0578	40.5435	33.983	-57.1372	57.4389	44.6904	-30.5261	72.0436	27.1708	-76.6904	48.2859	15.9205	-51.9268	68.1164	33.4284	-24.5477	77.9878	3.51616	-63.3296	57.1134	4.36718	-40.5787	78.7555	24.9163	-17.2928	87.6801	-9.78191	-49.5807	68.3028	-2.39817	-22.705	86.7186	20.4811	-8.47599	129.261	30.8705	-36.1778	139.852	40.6226	-5.33786	118.8	67.7252	-20.9501	
